HIERARCHY
ROOT Hips
{
 OFFSET 0.000000 0.000000 0.000000
 CHANNELS 6 Xposition Yposition Zposition Yrotation Xrotation Zrotation
 JOINT Chest
 {
  OFFSET 0.000000 9.588913 -0.003946
  CHANNELS 3 Yrotation Xrotation Zrotation
  JOINT Chest2
  {
   OFFSET 0.000000 9.541882 0.008053
   CHANNELS 3 Yrotation Xrotation Zrotation
   JOINT Chest3
   {
    OFFSET 0.000000 9.501360 0.000000
    CHANNELS 3 Yrotation Xrotation Zrotation
    JOINT Chest4
    {
     OFFSET 0.000000 9.491660 0.000000
     CHANNELS 3 Yrotation Xrotation Zrotation
     JOINT Neck
     {
      OFFSET 0.000000 14.331917 0.000000
      CHANNELS 3 Yrotation Xrotation Zrotation
      JOINT Head
      {
       OFFSET 0.000000 8.884799 0.017034
       CHANNELS 3 Yrotation Xrotation Zrotation
       End Site
       {
        OFFSET 0.000000 16.896195 0.008993
       }
      }
     }
     JOINT RightCollar
     {
      OFFSET -2.923010 9.499495 0.000000
      CHANNELS 3 Yrotation Xrotation Zrotation
      JOINT RightShoulder
      {
       OFFSET -13.795216 0.000000 0.000000
       CHANNELS 3 Yrotation Xrotation Zrotation
       JOINT RightElbow
       {
        OFFSET -30.272209 0.000000 0.000000
        CHANNELS 3 Yrotation Xrotation Zrotation
        JOINT RightWrist
        {
         OFFSET -24.478199 0.000000 0.000000
         CHANNELS 3 Yrotation Xrotation Zrotation
         End Site
         {
          OFFSET -18.090752 0.000000 0.000000
         }
        }
       }
      }
     }
     JOINT LeftCollar
     {
      OFFSET 2.923010 9.499495 0.000000
      CHANNELS 3 Yrotation Xrotation Zrotation
      JOINT LeftShoulder
      {
       OFFSET 13.795216 0.000000 0.000000
       CHANNELS 3 Yrotation Xrotation Zrotation
       JOINT LeftElbow
       {
        OFFSET 30.272209 0.000000 0.000000
        CHANNELS 3 Yrotation Xrotation Zrotation
        JOINT LeftWrist
        {
         OFFSET 24.478199 0.000000 0.000000
         CHANNELS 3 Yrotation Xrotation Zrotation
         End Site
         {
          OFFSET 18.090752 0.000000 0.000000
         }
        }
       }
      }
     }
    }
   }
  }
 }
 JOINT RightHip
 {
  OFFSET -7.826875 0.019532 0.001973
  CHANNELS 3 Yrotation Xrotation Zrotation
  JOINT RightKnee
  {
   OFFSET 0.000000 -40.546152 -0.001885
   CHANNELS 3 Yrotation Xrotation Zrotation
   JOINT RightAnkle
   {
    OFFSET 0.000000 -39.417092 -0.003189
    CHANNELS 3 Yrotation Xrotation Zrotation
    JOINT RightToe
    {
     OFFSET 0.000000 -7.579396 17.243563
     CHANNELS 3 Yrotation Xrotation Zrotation
     End Site
     {
      OFFSET 0.000000 -1.500329 6.694466
     }
    }
   }
  }
 }
 JOINT LeftHip
 {
  OFFSET 7.826875 0.019532 0.001973
  CHANNELS 3 Yrotation Xrotation Zrotation
  JOINT LeftKnee
  {
   OFFSET 0.000000 -40.546152 -0.001885
   CHANNELS 3 Yrotation Xrotation Zrotation
   JOINT LeftAnkle
   {
    OFFSET 0.000000 -39.417092 -0.003189
    CHANNELS 3 Yrotation Xrotation Zrotation
    JOINT LeftToe
    {
     OFFSET 0.000000 -7.579396 17.243563
     CHANNELS 3 Yrotation Xrotation Zrotation
     End Site
     {
      OFFSET 0.000000 -1.500329 6.694466
     }
    }
   }
  }
 }
}
MOTION
Frames: 11
Frame Time: 0.008333
0.000000 87.345680 0.000000 0.000000 -5.767889 0.000000 0.000000 11.653876 0.000000 0.000000 -5.885988 0.000000 0.000000 -0.000000 0.000000 0.000000 -0.000000 0.000000 0.000000 12.528808 0.000000 0.000000 0.711711 0.000000 0.000000 -0.000000 0.000000 0.000000 -0.000000 0.000000 2.309063 -0.000000 0.000000 -2.309063 -0.000000 -0.000000 0.000000 -0.000000 0.000000 0.000000 0.000000 0.000000 -2.309063 0.000000 0.000000 2.309063 -0.000000 0.000000 0.000000 8.520374 0.000000 0.000000 1.905768 0.000000 -0.000000 -4.658254 0.000000 0.000000 -0.000000 0.000000 0.000000 8.520374 0.000000 0.000000 1.905768 0.000000 -0.000000 -4.658254 0.000000 0.000000 -0.000000 0.000000
9.827509 89.109510 6.798220 51.627693 -10.343393 -0.922354 -0.792991 2.903203 1.312405 -0.469300 1.694679 0.695527 -0.583469 2.119224 0.867331 -0.469299 1.694678 0.695526 4.455563 20.594105 -2.175096 5.308329 -3.675309 -3.370574 -2.583065 1.193522 -0.404839 -3.172513 -6.705198 85.416150 7.258839 2.565870 0.116458 1.064319 -3.845424 -1.643240 -3.623300 0.579910 2.078536 9.422010 -2.709931 -87.299588 2.442876 -1.695280 3.854315 2.213400 -1.730205 -0.040139 -4.943335 -2.630579 -6.885873 -0.111828 30.939597 2.272189 9.650050 -16.043989 4.624719 0.161562 0.143918 3.266236 -6.531967 10.832285 0.874484 -9.125865 4.226282 0.027132 1.740644 -4.819384 -1.328005 -0.035083 -0.147618 -0.053897
9.821498 89.138283 6.850306 51.748606 -10.162486 -1.032933 -0.794631 2.823527 1.340937 -0.466780 1.642540 0.718293 -0.580311 2.054075 0.895864 -0.466778 1.642540 0.718292 4.395064 20.627301 -2.167273 5.240293 -3.641202 -3.347656 -2.577439 1.203159 -0.400051 -3.211202 -6.556117 85.580988 7.154788 2.490129 0.029601 1.047759 -3.809192 -1.620115 -3.594123 0.556176 2.074879 9.318687 -2.686656 -87.344011 2.281171 -1.632104 3.729905 2.196334 -1.738574 -0.061031 -5.205173 -2.230848 -6.706357 -0.615331 29.902059 1.664409 9.211291 -15.748395 4.005009 0.085357 0.277175 3.567286 -6.387781 10.758106 1.069159 -9.219608 4.049769 0.034174 1.660884 -4.723716 -1.328930 -0.025285 -0.159128 -0.062175
9.814309 89.167337 6.908926 51.869399 -9.963792 -1.122083 -0.786453 2.733987 1.362532 -0.460088 1.589130 0.735928 -0.571971 1.987321 0.918001 -0.460086 1.589130 0.735927 4.331429 20.646603 -2.155141 5.167603 -3.623456 -3.319221 -2.573706 1.213637 -0.387283 -3.254032 -6.407555 85.734580 7.029403 2.431835 -0.056259 1.031829 -3.774351 -1.589508 -3.564475 0.535190 2.070446 9.212117 -2.671965 -87.374334 2.080973 -1.550405 3.583648 2.177139 -1.745627 -0.087262 -5.468740 -1.815907 -6.595320 -0.990745 28.764259 1.141828 8.711321 -15.339869 3.437468 0.039165 0.343382 3.784912 -6.273002 10.650681 1.244728 -9.319306 3.901559 0.036324 1.600633 -4.637047 -1.333918 -0.016363 -0.178388 -0.068499
9.804315 89.193785 6.973362 51.982733 -9.760976 -1.186416 -0.765868 2.641266 1.374391 -0.447999 1.537621 0.748175 -0.556906 1.922927 0.933421 -0.447997 1.537622 0.748175 4.264619 20.650804 -2.140746 5.090714 -3.623377 -3.287480 -2.573716 1.223031 -0.363610 -3.299615 -6.263525 85.877196 6.880517 2.381433 -0.140560 1.019025 -3.742752 -1.562292 -3.534184 0.514039 2.067116 9.114883 -2.660454 -87.396816 1.835500 -1.454429 3.420353 2.161893 -1.749928 -0.114875 -5.711063 -1.393689 -6.534562 -1.257926 27.570411 0.683998 8.190248 -14.835030 2.963107 0.012695 0.345297 3.886555 -6.188885 10.524443 1.395425 -9.413746 3.780597 0.035077 1.556320 -4.564821 -1.342819 -0.008630 -0.199902 -0.073704
9.789450 89.215107 7.042487 52.082375 -9.562286 -1.223865 -0.732304 2.550724 1.376587 -0.430102 1.489972 0.754835 -0.534600 1.863338 0.941874 -0.430100 1.489973 0.754835 4.195607 20.639187 -2.126634 5.011315 -3.641605 -3.255427 -2.577113 1.223976 -0.332860 -3.345715 -6.121009 86.009128 6.708798 2.332342 -0.219016 1.006290 -3.718545 -1.545055 -3.504796 0.490004 2.063594 9.040793 -2.648971 -87.414361 1.543867 -1.353402 3.240460 2.152489 -1.755752 -0.138382 -5.918974 -0.974683 -6.502825 -1.454901 26.362394 0.263715 7.687694 -14.262691 2.625838 -0.002414 0.297843 3.843951 -6.135035 10.388447 1.516069 -9.500673 3.685428 0.035301 1.531485 -4.511051 -1.358264 -0.002238 -0.218742 -0.078017
9.767810 89.229683 7.115747 52.169234 -9.373100 -1.236748 -0.688175 2.466762 1.371933 -0.407191 1.447113 0.756148 -0.506040 1.809719 0.943652 -0.407189 1.447114 0.756149 4.124660 20.612073 -2.115357 4.930333 -3.677624 -3.225900 -2.585685 1.213084 -0.303916 -3.387564 -5.975543 86.135892 6.519275 2.277767 -0.289424 0.990331 -3.703740 -1.535230 -3.476886 0.462697 2.058520 8.993799 -2.638363 -87.425713 1.214061 -1.264171 3.038095 2.139506 -1.766202 -0.154659 -6.104530 -0.568501 -6.487109 -1.616799 25.177010 -0.128529 7.253195 -13.656818 2.438910 -0.012622 0.221801 3.652430 -6.118252 10.250727 1.608493 -9.576718 3.610090 0.036861 1.527684 -4.476236 -1.380607 0.002384 -0.230772 -0.081958
9.738599 89.237086 7.194232 52.242171 -9.203395 -1.231808 -0.635829 2.395269 1.365469 -0.379308 1.410145 0.752380 -0.471273 1.763449 0.939086 -0.379307 1.410147 0.752381 4.052600 20.571233 -2.108209 4.849016 -3.729261 -3.200509 -2.596678 1.196105 -0.280075 -3.426691 -5.831337 86.266907 6.314863 2.216336 -0.356119 0.969634 -3.695880 -1.529893 -3.447673 0.434351 2.053376 8.978138 -2.630906 -87.430168 0.853411 -1.192093 2.810183 2.116677 -1.785488 -0.160648 -6.298258 -0.173619 -6.484149 -1.755965 24.038973 -0.475205 6.932869 -13.053629 2.380112 -0.022761 0.143698 3.330985 -6.136353 10.124392 1.683877 -9.632041 3.549850 0.032274 1.536270 -4.461365 -1.407506 0.005123 -0.233480 -0.084869
9.701759 89.237800 7.279899 52.294968 -9.063932 -1.217797 -0.575406 2.341986 1.364241 -0.344980 1.379963 0.743040 -0.428456 1.725643 0.927567 -0.344979 1.379965 0.743040 3.981095 20.520103 -2.104311 4.769027 -3.792467 -3.178717 -2.604556 1.176084 -0.257903 -3.469029 -5.692762 86.410628 6.095354 2.152792 -0.426194 0.943056 -3.691786 -1.525045 -3.416055 0.407869 2.050846 8.999003 -2.628060 -87.428185 0.468242 -1.131737 2.558281 2.081500 -1.819945 -0.153308 -6.527057 0.216371 -6.491238 -1.867878 22.964742 -0.757167 6.754853 -12.488489 2.433825 -0.035984 0.090839 2.898524 -6.168381 10.022034 1.755752 -9.654505 3.505213 0.017711 1.538996 -4.469270 -1.438784 0.006522 -0.226212 -0.085136
9.657718 89.232556 7.371566 52.322158 -8.951732 -1.188754 -0.505210 2.303613 1.361623 -0.304051 1.356181 0.727871 -0.377395 1.695821 0.908778 -0.304050 1.356183 0.727872 3.912318 20.462077 -2.102702 4.692559 -3.863230 -3.160021 -2.608243 1.148999 -0.234083 -3.509663 -5.559451 86.569086 5.860596 2.086867 -0.501803 0.908772 -3.687051 -1.518498 -3.381589 0.383328 2.053377 9.055074 -2.628312 -87.421622 0.065566 -1.083965 2.285421 2.031568 -1.865275 -0.129798 -6.804884 0.612458 -6.524367 -1.932689 21.933750 -0.973967 6.697035 -12.013063 2.792259 -0.047809 0.105393 2.239130 -6.192907 9.940864 1.819445 -9.643002 3.473742 -0.003780 1.525089 -4.494996 -1.475704 0.007655 -0.212264 -0.081953
9.607738 89.222224 7.464744 52.324613 -8.852782 -1.122895 -0.425653 2.271904 1.334480 -0.258706 1.337450 0.707418 -0.320822 1.672304 0.883389 -0.258705 1.337452 0.707419 3.849588 20.397816 -2.103553 4.623287 -3.940579 -3.145403 -2.608039 1.110091 -0.206720 -3.535306 -5.434777 86.736640 5.607287 2.010984 -0.581341 0.864951 -3.677246 -1.509220 -3.343935 0.358880 2.057169 9.140389 -2.631236 -87.408741 -0.350038 -1.052833 1.998171 1.965854 -1.915529 -0.089630 -7.136384 1.010897 -6.611486 -1.938025 20.931839 -1.133001 6.701975 -11.689080 3.647809 -0.047659 0.213216 1.270157 -6.206584 9.865303 1.849315 -9.610134 3.449464 -0.024851 1.501516 -4.525191 -1.520293 0.009291 -0.198735 -0.075361
